<svg width="36" height="32" viewBox="0 0 36 32" fill="none" xmlns="http://www.w3.org/2000/svg">
<g filter="url(#filter0_i_3032_760)">
<path fill-rule="evenodd" clip-rule="evenodd" d="M4.22461 16.1836C4.24499 16.1836 4.26533 16.1834 4.28564 16.1832V17.4692C4.28564 19.8024 6.17721 21.6938 8.51025 21.6938C8.74934 21.6938 8.98378 21.6739 9.21201 21.6358C9.45608 23.7375 11.2425 25.3672 13.4082 25.3672C13.6374 25.3672 13.8624 25.3489 14.0818 25.3138V27.2651C14.0818 29.5979 15.9727 31.4897 18.3064 31.4897C20.6394 31.4897 22.5308 29.5981 22.5308 27.2651V25.9261C22.7501 25.9612 22.9751 25.9795 23.2043 25.9795C25.5381 25.9795 27.4287 24.0874 27.4287 21.7549V19.1912C27.6481 19.2263 27.8731 19.2446 28.1023 19.2446C30.0374 19.2446 31.6704 17.9429 32.1697 16.1655C34.3187 15.9667 36 14.1586 36 11.959V9.51025C36 7.31066 34.3187 5.50257 32.1697 5.30378C31.6704 3.52639 30.0375 2.22461 28.1023 2.22461C25.7701 2.22461 23.8777 4.11444 23.8777 6.44873V8.40005C23.6584 8.36493 23.4335 8.34668 23.2043 8.34668C22.2914 8.34668 21.4461 8.63628 20.7553 9.12862C20.0645 8.63629 19.2193 8.34668 18.3064 8.34668C18.0771 8.34668 17.852 8.36495 17.6326 8.40011V7.67334C17.6326 5.34046 15.7413 3.44873 13.4082 3.44873C13.0601 3.44873 12.7219 3.49082 12.3984 3.57017C11.7548 2.05954 10.2567 1 8.51025 1C6.17713 1 4.28564 2.89148 4.28564 5.22461V5.28607C4.26533 5.28578 4.24499 5.28564 4.22461 5.28564C1.89148 5.28564 0 7.17713 0 9.51025V11.959C0 14.2921 1.89149 16.1836 4.22461 16.1836ZM9.73462 5.22461C9.73462 4.54834 9.18652 4 8.51025 4C7.83398 4 7.28564 4.54834 7.28564 5.22461V17.4692C7.28564 18.1455 7.83398 18.6938 8.51025 18.6938C9.18652 18.6938 9.73462 18.1455 9.73462 17.4692V5.22461ZM14.6326 7.67334C14.6326 6.99707 14.0842 6.44873 13.4082 6.44873C12.7317 6.44873 12.1836 6.99707 12.1836 7.67334V21.1431C12.1836 21.8193 12.7317 22.3672 13.4082 22.3672C14.0842 22.3672 14.6326 21.8193 14.6326 21.1431V7.67334ZM18.3064 11.3467C18.9824 11.3467 19.5308 11.895 19.5308 12.5713V27.2651C19.5308 27.9414 18.9824 28.4897 18.3064 28.4897C17.6299 28.4897 17.0818 27.9414 17.0818 27.2651V12.5713C17.0818 11.895 17.6299 11.3467 18.3064 11.3467ZM24.4287 12.5713C24.4287 11.895 23.8806 11.3467 23.2043 11.3467C22.5281 11.3467 21.9797 11.895 21.9797 12.5713V21.7549C21.9797 22.4312 22.5281 22.9795 23.2043 22.9795C23.8806 22.9795 24.4287 22.4312 24.4287 21.7549V12.5713ZM28.1023 5.22461C28.7783 5.22461 29.3267 5.77246 29.3267 6.44873V15.0205C29.3267 15.6968 28.7783 16.2446 28.1023 16.2446C27.4258 16.2446 26.8777 15.6968 26.8777 15.0205V6.44873C26.8777 5.77246 27.4258 5.22461 28.1023 5.22461ZM33 9.51025C33 8.83398 32.4519 8.28564 31.7756 8.28564C31.0991 8.28564 30.551 8.83398 30.551 9.51025V11.959C30.551 12.6353 31.0991 13.1836 31.7756 13.1836C32.4519 13.1836 33 12.6353 33 11.959V9.51025ZM4.22461 8.28564C4.90063 8.28564 5.44897 8.83398 5.44897 9.51025V11.959C5.44897 12.6353 4.90063 13.1836 4.22461 13.1836C3.54834 13.1836 3 12.6353 3 11.959V9.51025C3 8.83398 3.54834 8.28564 4.22461 8.28564Z" fill="#2515E9"/>
</g>
<defs>
<filter id="filter0_i_3032_760" x="0" y="0.5" width="36" height="30.9897" filterUnits="userSpaceOnUse" color-interpolation-filters="sRGB">
<feFlood flood-opacity="0" result="BackgroundImageFix"/>
<feBlend mode="normal" in="SourceGraphic" in2="BackgroundImageFix" result="shape"/>
<feColorMatrix in="SourceAlpha" type="matrix" values="0 0 0 0 0 0 0 0 0 0 0 0 0 0 0 0 0 0 127 0" result="hardAlpha"/>
<feOffset dy="-0.5"/>
<feGaussianBlur stdDeviation="0.25"/>
<feComposite in2="hardAlpha" operator="arithmetic" k2="-1" k3="1"/>
<feColorMatrix type="matrix" values="0 0 0 0 1 0 0 0 0 1 0 0 0 0 1 0 0 0 0.25 0"/>
<feBlend mode="normal" in2="shape" result="effect1_innerShadow_3032_760"/>
</filter>
</defs>
</svg>
